<svg width="75" height="153" viewBox="0 0 75 153" fill="none" xmlns="http://www.w3.org/2000/svg">
<path d="M58.8409 10.3889H16.1591C13.1566 10.3889 10.7126 12.8239 10.7126 15.818V125.008C10.7126 128.001 13.1566 130.437 16.1591 130.437H23.8903C25.1362 130.437 26.1468 129.43 26.1468 128.188C26.1468 126.946 25.1362 125.94 23.8903 125.94H16.1591C15.6438 125.94 15.2246 125.522 15.2246 125.008V83.1314L59.7754 106.684V125.008C59.7754 125.522 59.3562 125.94 58.8409 125.94H34.3417C33.0957 125.94 32.0863 126.947 32.0863 128.189C32.0863 129.431 33.0957 130.437 34.3417 130.437H58.8409C61.8434 130.437 64.2874 128.001 64.2874 125.008V15.818C64.2874 12.8239 61.8434 10.3889 58.8409 10.3889ZM59.7754 101.595L15.2246 78.0408V71.4153L59.7754 94.969V101.595ZM59.7754 89.8784L15.2246 66.3258V57.9143L59.7754 81.4669V89.8784ZM59.7754 57.1894L51.4271 52.7758C50.3275 52.1945 48.9621 52.6124 48.3777 53.7097C47.7946 54.8058 48.2138 56.1668 49.3134 56.7493L59.7754 62.28V76.3774L15.2246 52.8237V38.7263L40.0318 51.842C41.1314 52.4233 42.498 52.0066 43.0811 50.9093C43.6643 49.8121 43.2463 48.451 42.1455 47.8685L15.2234 33.6368V15.818C15.2234 15.3044 15.6438 14.8865 16.1591 14.8865H58.8397C59.3562 14.8865 59.7754 15.3044 59.7754 15.818V57.1894Z" fill="#3E3F43"/>
<path d="M66.6716 0H8.32839C3.7356 0 0 3.72368 0 8.30182V148.724C0 151.082 1.92401 153 4.29067 153H13.5102C15.8757 153 17.7997 151.082 17.7997 148.724V140.826H57.2003V148.724C57.2003 151.082 59.1243 153 61.4898 153H70.7093C73.0748 153 75 151.082 75 148.724V8.30182C75 3.72368 71.2644 0 66.6716 0ZM13.2889 148.502H4.51199V140.826H13.2889V148.502ZM70.488 148.502H61.7111V140.826H70.488V148.502ZM70.488 136.329H4.51199V8.30182C4.51199 6.20419 6.22404 4.4976 8.32839 4.4976H66.6716C68.776 4.4976 70.488 6.20419 70.488 8.30182V136.329Z" fill="#3E3F43"/>
</svg>
