<svg width="154" height="152" viewBox="0 0 154 152" fill="none" xmlns="http://www.w3.org/2000/svg">
<path d="M113.156 104.005C115.082 104.005 116.642 102.434 116.642 100.496C116.642 98.5573 115.082 96.9861 113.156 96.9861C111.231 96.9861 109.671 98.5573 109.671 100.496C109.671 102.434 111.231 104.005 113.156 104.005Z" fill="#3E3F43"/>
<path d="M113.156 136.55C115.082 136.55 116.643 134.978 116.643 133.04C116.643 131.102 115.082 129.53 113.156 129.53C111.231 129.53 109.67 131.102 109.67 133.04C109.67 134.978 111.231 136.55 113.156 136.55Z" fill="#3E3F43"/>
<path d="M76.6625 9.13987H39.8564C38.6105 9.13987 37.6005 10.1568 37.6005 11.4111C37.6005 12.6654 38.6105 13.6822 39.8564 13.6822H74.4067V42.9576H22.7907V13.6822H30.9584C32.2042 13.6822 33.2142 12.6654 33.2142 11.4111C33.2142 10.1568 32.2042 9.13987 30.9584 9.13987H20.5349C19.289 9.13987 18.279 10.1568 18.279 11.4111V45.2287C18.279 46.483 19.289 47.4999 20.5349 47.4999H76.6625C77.9084 47.5002 78.9184 46.4833 78.9184 45.229V11.4111C78.9184 10.1568 77.9084 9.13987 76.6625 9.13987Z" fill="#3E3F43"/>
<path d="M140.952 44.4099C142.731 44.4099 144.174 42.9576 144.174 41.166C144.174 39.3745 142.731 37.9222 140.952 37.9222C139.172 37.9222 137.73 39.3745 137.73 41.166C137.73 42.9576 139.172 44.4099 140.952 44.4099Z" fill="#3E3F43"/>
<path d="M147.799 70.987H141.454V70.5473C141.454 67.0085 139.418 63.9406 136.465 62.4643L144.997 50.2844C148.456 48.7221 150.873 45.2245 150.873 41.1666C150.873 36.6409 147.867 32.8108 143.761 31.5877L133.068 19.3199C133.533 15.4747 132.288 11.4786 129.411 8.58115C124.901 4.0409 117.537 3.56153 112.484 7.47221L102.645 15.0877C100.306 13.9472 97.4446 14.4342 95.6084 16.2829C93.234 18.6734 93.2364 22.6683 95.6084 25.056C95.6084 25.056 113.038 42.6042 113.047 42.6135C115.423 45.0056 119.388 45.0025 121.761 42.6135C123.661 40.7006 124.052 37.8413 122.947 35.5314L125.828 31.7576L131.468 38.2283C131.183 39.1577 131.03 40.1443 131.03 41.1666C131.03 42.619 131.342 43.9987 131.898 45.2448L120.491 61.5274H111.787C106.847 61.5274 102.828 65.5737 102.828 70.5473V70.987H63.3729V70.5473C63.3729 65.8078 59.7223 61.9129 55.1038 61.5571V56.6404H77.5453C83.3083 56.6404 87.9968 51.92 87.9968 46.1178V10.5226C87.9968 4.72044 83.3083 0 77.5453 0H19.6524C13.8894 0 9.20086 4.72013 9.20086 10.5226V46.1175C9.20086 51.9197 13.8894 56.6401 19.6524 56.6401H42.0939V61.5568C37.4754 61.9129 33.8248 65.8075 33.8248 70.547V70.9867H6.20148C2.78191 70.9867 0 73.7879 0 77.2304V83.2999C0 85.9408 1.63955 88.1987 3.94593 89.1099V146.264C3.94593 149.427 6.50196 152 9.64331 152H16.0632C19.2045 152 21.7605 149.426 21.7605 146.264V89.5439H76.2574V146.264C76.2574 149.427 78.8134 152 81.9547 152H88.3746C90.715 152 92.7284 150.571 93.604 148.535H132.707C133.583 150.571 135.597 152 137.937 152H144.357C147.499 152 150.054 149.427 150.054 146.264V89.1099C152.36 88.199 154 85.9411 154 83.3002V77.2307C154 73.7879 151.218 70.987 147.799 70.987ZM142.048 35.8327C144.507 36.3448 146.361 38.5418 146.361 41.1666C146.361 43.5256 144.774 45.5948 142.641 46.3295C140.375 47.1096 137.79 46.1908 136.459 44.1988C134.586 41.395 135.795 37.4286 138.879 36.1373C139.863 35.7258 141.004 35.6171 142.048 35.8327ZM118.57 39.4018C117.934 40.0419 116.871 40.041 116.236 39.4018C116.236 39.4018 98.8189 21.8655 98.7975 21.8443C98.1608 21.2032 98.1611 20.136 98.7975 19.4953C99.434 18.8545 100.495 18.8548 101.131 19.4953C101.131 19.4953 118.568 37.0506 118.57 37.0528C119.217 37.6842 119.199 38.7677 118.57 39.4018ZM126.934 22.8551L119.943 32.0113L106.138 18.1129C106.138 18.1129 115.23 11.0758 115.233 11.0737C118.516 8.5321 123.294 8.84855 126.219 11.7935C129.133 14.727 129.444 19.5692 126.934 22.8551ZM128.63 28.087L130.511 25.6235C130.83 25.2072 131.134 24.7529 131.402 24.2966L137.834 31.6749C136.345 32.1661 134.998 33.0061 133.898 34.1299L128.63 28.087ZM134.789 48.9977C135.47 49.5419 136.219 49.9885 137.015 50.3347C137.643 50.6081 138.303 50.8192 138.974 50.9567C138.983 50.9585 138.991 50.9609 139 50.9627L131.598 61.5277H126.01L134.789 48.9977ZM111.786 66.0698H132.494C134.946 66.0698 136.941 68.0784 136.941 70.5473V70.987H107.338V70.5473C107.338 68.0784 109.333 66.0698 111.786 66.0698ZM19.6524 52.0977C16.3772 52.0977 13.7126 49.415 13.7126 46.1175V10.5226C13.7126 7.2251 16.3772 4.54238 19.6524 4.54238H77.5453C80.8205 4.54238 83.4851 7.2251 83.4851 10.5226V46.1175C83.4851 49.415 80.8205 52.0977 77.5453 52.0977H19.6524ZM50.5921 56.6401V61.5274H46.6059V56.6401H50.5921ZM38.3365 70.5473C38.3365 68.0784 40.3316 66.0698 42.7839 66.0698H54.4141C56.8661 66.0698 58.8612 68.0784 58.8612 70.5473V70.987H38.3365V70.5473ZM17.2488 146.264C17.2485 146.922 16.7165 147.457 16.0629 147.457H9.64331C8.98971 147.457 8.45763 146.922 8.45763 146.264V89.5439H17.2488V146.264ZM89.5597 146.264C89.5597 146.922 89.0279 147.458 88.374 147.458H81.9541C81.3005 147.458 80.7685 146.922 80.7685 146.264V89.5439H89.5597V146.264ZM132.239 114.497H125.965C124.72 114.497 123.71 115.514 123.71 116.768C123.71 118.022 124.72 119.039 125.965 119.039H132.239V143.992H94.0714V119.039H116.942C118.188 119.039 119.198 118.022 119.198 116.768C119.198 115.514 118.188 114.497 116.942 114.497H94.0714V89.5439H132.239V114.497ZM145.542 146.264C145.542 146.922 145.01 147.457 144.356 147.457H137.937C137.283 147.457 136.751 146.922 136.751 146.264V89.5439H145.542V146.264ZM149.488 83.2999C149.488 84.238 148.729 85.0012 147.798 85.0012H6.20178C5.26997 85.0012 4.512 84.238 4.512 83.2999V77.2304C4.512 76.2922 5.26997 75.5291 6.20148 75.5291H147.798C148.73 75.5291 149.488 76.2922 149.488 77.2304V83.2999Z" fill="#3E3F43"/>
</svg>
