<svg width="157" height="152" viewBox="0 0 157 152" fill="none" xmlns="http://www.w3.org/2000/svg">
<path d="M68.0334 122.983H62.8C61.3557 122.983 60.1834 124.153 60.1834 125.6C60.1834 127.047 61.3557 128.216 62.8 128.216H65.4166V130.833C65.4166 132.28 66.5889 133.45 68.0331 133.45C69.4774 133.45 70.6497 132.28 70.6497 130.833V125.6C70.65 124.153 69.4777 122.983 68.0334 122.983Z" fill="#3E3F43"/>
<path d="M94.2 122.983H88.9666C87.5223 122.983 86.35 124.153 86.35 125.6V130.833C86.35 132.28 87.5223 133.45 88.9666 133.45C90.4108 133.45 91.5831 132.28 91.5831 130.833V128.217H94.1997C95.644 128.217 96.8163 127.047 96.8163 125.6C96.8163 124.153 95.6443 122.983 94.2 122.983Z" fill="#3E3F43"/>
<path fill-rule="evenodd" clip-rule="evenodd" d="M117.75 0H154.383C155.828 0 157 1.16983 157 2.61687V149.15C157 150.597 155.828 151.767 154.383 151.767H2.61656C1.17229 151.767 0 150.597 0 149.15V2.61687C0 1.16983 1.17229 1.23982e-07 2.61656 0.000306765H39.25C40.6943 0.000306765 41.8666 1.16983 41.8666 2.61687V91.5831H63.2501C62.9598 90.7641 62.8 89.8837 62.8 88.9666C62.8 84.6386 66.3221 81.1166 70.65 81.1166H75.8831V75.8831H49.7166C48.2723 75.8831 47.1 74.7136 47.1 73.2666V31.4C47.1 29.953 48.2723 28.7834 49.7166 28.7834H107.283C108.727 28.7834 109.9 29.953 109.9 31.4V73.2669C109.9 74.7139 108.727 75.8834 107.283 75.8834H81.1166V81.1169H86.35C90.6779 81.1169 94.2 84.6389 94.2 88.9669C94.2 89.884 94.0405 90.7644 93.7498 91.5834H115.133V2.61656C115.133 1.16953 116.306 0 117.75 0ZM81.1166 146.533H115.133L115.133 117.75H81.1166V146.533ZM62.8 112.517H94.2V107.283H62.8V112.517ZM151.767 78.5H120.367V109.9H151.767V78.5ZM151.767 5.23344H120.367V36.6334H151.767V5.23344ZM70.65 86.3503C69.2082 86.3503 68.0334 87.5226 68.0334 88.9669C68.0334 90.4112 69.2082 91.5834 70.65 91.5834H86.35C87.7918 91.5834 88.9666 90.4112 88.9666 88.9669C88.9666 87.5226 87.7918 86.3503 86.35 86.3503H70.65ZM115.133 112.517V96.8169H41.8666V112.517H57.5666V107.283C57.5666 104.397 59.9139 102.05 62.8 102.05H94.2C97.0864 102.05 99.4334 104.397 99.4334 107.283V112.517H115.133ZM36.6331 73.2669V41.8669H5.23313V73.2669H36.6331ZM36.6334 115.133H5.23344V146.533H36.6334V115.133ZM75.8831 117.75H41.8666V146.533H75.8831V117.75ZM18.3166 36.6334H23.55H28.7834H36.6334V5.23344H5.23344V36.6334H13.0834H18.3166ZM26.1666 109.9H15.7L10.4669 109.9H5.23344V78.5003H36.6334V109.9H31.4L26.1666 109.9ZM146.533 146.533H151.767L151.767 115.133H120.367V146.533H125.601H130.834H133.45H138.683H141.3H146.533ZM151.767 73.2669H146.533L141.3 73.2666H138.683L133.45 73.2669H130.833H125.6H120.367V41.8669H151.767V73.2669ZM104.667 60.1834V44.4834L104.667 39.2503V34.0169H52.3334V39.2503V44.4834V60.1834V65.4169V70.6503H104.667V65.4169V60.1834Z" fill="#3E3F43"/>
</svg>
