<svg width="202" height="140" viewBox="0 0 202 140" fill="none" xmlns="http://www.w3.org/2000/svg">
<g opacity="0.2">
<path d="M139.664 25.25H118.359V24.2344C118.359 17.9311 113.232 12.8022 106.927 12.8022H99.6114C96.2733 5.13507 88.6277 0 80.076 0H79.3147C70.7629 0 63.1173 5.13507 59.7792 12.8022H52.4634C46.1586 12.8022 41.0312 17.9311 41.0312 24.2344V25.25H19.7266C7.37434 25.25 0 31.1495 0 41.0312V182.273C0 193.151 8.84921 202 19.7266 202H139.664C150.541 202 159.391 193.151 159.391 182.273V92.9784C159.391 90.7992 157.624 89.0331 155.445 89.0331C153.266 89.0331 151.5 90.7992 151.5 92.9784V182.273C151.5 188.8 146.191 194.109 139.664 194.109H19.7266C13.1998 194.109 7.89062 188.8 7.89062 182.273V41.0312C7.89062 39.0802 7.89062 33.1406 19.7266 33.1406H41.0312V38.6641C41.0312 40.8432 42.7974 42.6094 44.9766 42.6094H114.414C116.593 42.6094 118.359 40.8432 118.359 38.6641V33.1406H139.664C146.191 33.1406 151.5 38.4498 151.5 44.9766V58.2596C151.5 60.4388 153.266 62.2049 155.445 62.2049C157.624 62.2049 159.391 60.4388 159.391 58.2596V44.9766C159.391 34.0992 150.541 25.25 139.664 25.25ZM110.469 34.7188H48.9219V24.2344C48.9219 22.2818 50.5108 20.6929 52.4634 20.6929H62.564C64.3456 20.6929 65.9052 19.5 66.3722 17.7816C67.9518 11.9577 73.2749 7.89062 79.3147 7.89062H80.076C86.1157 7.89062 91.4388 11.9577 93.02 17.7816C93.4854 19.5 95.0466 20.6929 96.8266 20.6929H106.929C108.881 20.6929 110.469 22.2818 110.469 24.2344V34.7188Z" fill="#3E3F43"/>
<path d="M155.445 70.823C154.408 70.823 153.389 71.2406 152.656 71.9742C151.922 72.7124 151.5 73.7265 151.5 74.7637C151.5 75.8055 151.922 76.8195 152.656 77.5562C153.389 78.2913 154.408 78.7136 155.445 78.7136C156.482 78.7136 157.501 78.2913 158.235 77.5562C158.968 76.8226 159.391 75.8055 159.391 74.7637C159.391 73.7265 158.968 72.7078 158.235 71.9742C157.501 71.2406 156.482 70.823 155.445 70.823Z" fill="#3E3F43"/>
<path d="M198.055 127.039C197.018 127.039 195.999 127.461 195.265 128.195C194.532 128.928 194.109 129.947 194.109 130.984C194.109 132.022 194.532 133.04 195.265 133.774C195.999 134.507 197.018 134.93 198.055 134.93C199.092 134.93 200.111 134.507 200.844 133.774C201.578 133.04 202 132.022 202 130.984C202 129.947 201.578 128.928 200.844 128.195C200.111 127.461 199.092 127.039 198.055 127.039Z" fill="#3E3F43"/>
<path d="M201.656 73.1547L189.031 44.9427C188.395 43.5233 186.985 42.6094 185.43 42.6094C183.875 42.6094 182.465 43.5233 181.828 44.9427L169.203 73.1547C168.977 73.6602 168.859 74.2104 168.859 74.7652V192.581C168.859 197.774 173.085 202 178.279 202H192.581C197.774 202 202 197.774 202 192.581V148.213C202 146.034 200.234 144.267 198.055 144.267C195.876 144.267 194.109 146.034 194.109 148.213V175.798H176.75V78.7105H194.109V115.125C194.109 117.304 195.876 119.07 198.055 119.07C200.234 119.07 202 117.304 202 115.125V74.7652C202 74.2104 201.883 73.6602 201.656 73.1547ZM185.43 56.213L191.967 70.8199H178.892L185.43 56.213ZM194.109 183.688V192.581C194.109 193.424 193.424 194.109 192.581 194.109H178.279C177.436 194.109 176.75 193.424 176.75 192.581V183.688H194.109Z" fill="#3E3F43"/>
<path d="M46.4237 56.8125C37.2863 56.8125 29.8534 64.2454 29.8534 73.3828C29.8534 82.5202 37.2863 89.9531 46.4237 89.9531C55.5596 89.9531 62.994 82.5202 62.994 73.3828C62.994 64.2454 55.5596 56.8125 46.4237 56.8125ZM46.4237 82.0625C41.6369 82.0625 37.744 78.1696 37.744 73.3828C37.744 68.596 41.6369 64.7031 46.4237 64.7031C51.2089 64.7031 55.1034 68.596 55.1034 73.3828C55.1034 78.1696 51.2089 82.0625 46.4237 82.0625Z" fill="#3E3F43"/>
<path d="M46.4237 104.156C37.2863 104.156 29.8534 111.589 29.8534 120.727C29.8534 129.864 37.2863 137.297 46.4237 137.297C55.5596 137.297 62.994 129.864 62.994 120.727C62.994 111.589 55.5596 104.156 46.4237 104.156ZM46.4237 129.406C41.6369 129.406 37.744 125.513 37.744 120.727C37.744 115.94 41.6369 112.047 46.4237 112.047C51.2089 112.047 55.1034 115.94 55.1034 120.727C55.1034 125.513 51.2089 129.406 46.4237 129.406Z" fill="#3E3F43"/>
<path d="M46.4237 151.5C37.2863 151.5 29.8534 158.933 29.8534 168.07C29.8534 177.208 37.2863 184.641 46.4237 184.641C55.5596 184.641 62.994 177.208 62.994 168.07C62.994 158.933 55.5596 151.5 46.4237 151.5ZM46.4237 176.75C41.6369 176.75 37.744 172.857 37.744 168.07C37.744 163.284 41.6369 159.391 46.4237 159.391C51.2089 159.391 55.1034 163.284 55.1034 168.07C55.1034 172.857 51.2089 176.75 46.4237 176.75Z" fill="#3E3F43"/>
<path d="M125.592 82.0625H80.3534C78.1742 82.0625 76.4081 83.8286 76.4081 86.0078C76.4081 88.187 78.1742 89.9531 80.3534 89.9531H125.593C127.771 89.9531 129.539 88.187 129.539 86.0078C129.539 83.8286 127.771 82.0625 125.592 82.0625Z" fill="#3E3F43"/>
<path d="M125.592 63.125H80.3534C78.1742 63.125 76.4081 64.8911 76.4081 67.0703C76.4081 69.2495 78.1742 71.0156 80.3534 71.0156H125.593C127.771 71.0156 129.539 69.2495 129.539 67.0703C129.539 64.8911 127.771 63.125 125.592 63.125Z" fill="#3E3F43"/>
<path d="M125.592 129.406H80.3534C78.1742 129.406 76.4081 131.172 76.4081 133.352C76.4081 135.531 78.1742 137.297 80.3534 137.297H125.593C127.771 137.297 129.539 135.531 129.539 133.352C129.539 131.172 127.771 129.406 125.592 129.406Z" fill="#3E3F43"/>
<path d="M125.592 110.469H80.3534C78.1742 110.469 76.4081 112.235 76.4081 114.414C76.4081 116.593 78.1742 118.359 80.3534 118.359H125.593C127.771 118.359 129.539 116.593 129.539 114.414C129.539 112.235 127.771 110.469 125.592 110.469Z" fill="#3E3F43"/>
<path d="M125.592 176.75H80.3534C78.1742 176.75 76.4081 178.516 76.4081 180.695C76.4081 182.874 78.1742 184.641 80.3534 184.641H125.593C127.771 184.641 129.539 182.874 129.539 180.695C129.539 178.516 127.771 176.75 125.592 176.75Z" fill="#3E3F43"/>
<path d="M125.592 157.812H80.3534C78.1742 157.812 76.4081 159.579 76.4081 161.758C76.4081 163.937 78.1742 165.703 80.3534 165.703H125.593C127.771 165.703 129.539 163.937 129.539 161.758C129.539 159.579 127.771 157.812 125.592 157.812Z" fill="#3E3F43"/>
</g>
</svg>
