<svg width="202" height="140" viewBox="0 0 202 140" fill="none" xmlns="http://www.w3.org/2000/svg">
<g opacity="0.2">
<path d="M191.935 100.932L182.771 99.7839C179.984 92.9672 175.981 86.6618 171.006 81.2062L177.745 52.6604C178.022 51.487 177.747 50.2517 176.999 49.3064C176.251 48.3612 175.112 47.8096 173.907 47.8088L173.045 47.8084C173.039 47.8084 173.036 47.8084 173.031 47.8084C161.845 47.8084 151.765 54.8461 147.8 65.1685C144.995 64.054 142.113 63.1359 139.172 62.4404C137.052 61.9389 134.927 63.2507 134.425 65.3717C133.924 67.4923 135.236 69.6177 137.356 70.1191C147.399 72.4946 156.358 77.573 163.419 84.6205C163.677 84.9984 163.999 85.333 164.377 85.6037C169.524 91.0064 173.593 97.4885 176.232 104.753C176.738 106.144 177.981 107.136 179.45 107.32L190.955 108.761C192.754 108.986 194.11 110.523 194.11 112.335V132.226C194.11 134.039 192.754 135.575 190.955 135.801L180.294 137.135C178.761 137.327 177.48 138.397 177.019 139.872C173.856 149.978 167.846 158.914 159.639 165.714C158.734 166.464 158.211 167.578 158.211 168.752V190.559C158.211 192.517 156.618 194.109 154.661 194.109H131.776C129.819 194.109 128.226 192.517 128.226 190.559V182.248C128.226 180.069 126.46 178.303 124.281 178.303H91.1347C88.9561 178.303 87.1894 180.069 87.1894 182.248V190.559C87.1894 192.517 85.5971 194.109 83.6398 194.109H60.7539C58.797 194.109 57.2047 192.517 57.2047 190.559V175.161C57.2047 173.715 56.4128 172.384 55.1417 171.694C37.4343 162.08 26.4336 143.604 26.4336 123.476C26.4336 93.2437 51.0291 68.6483 81.2612 68.6483H86.2051C88.3837 68.6483 90.1504 66.882 90.1504 64.703C90.1504 62.524 88.3837 60.7577 86.2051 60.7577H81.2612C51.9744 60.7577 27.3142 80.9367 20.4474 108.121H17.5566C12.2265 108.121 7.89062 103.785 7.89062 98.4551C7.89062 93.1254 12.2265 88.7891 17.5566 88.7891C19.7352 88.7891 21.502 87.0228 21.502 84.8438C21.502 82.6648 19.7352 80.8985 17.5566 80.8985C7.87603 80.8985 0 88.7741 0 98.4551C0 108.136 7.87603 116.012 17.5566 116.012H18.9892C18.6972 118.46 18.543 120.95 18.543 123.476C18.543 145.707 30.274 166.177 49.3136 177.458V190.56C49.3136 196.868 54.4457 202 60.7535 202H83.639C89.9472 202 95.0793 196.868 95.0793 190.56V186.194H120.335V190.56C120.335 196.868 125.467 202 131.775 202H154.661C160.968 202 166.1 196.868 166.1 190.56V170.571C174.111 163.526 180.156 154.639 183.734 144.657L191.935 143.63C197.673 142.912 202 138.009 202 132.226V112.335C202 106.552 197.673 101.65 191.935 100.932ZM164.381 74.9281C161.437 72.5206 158.285 70.3878 154.97 68.5564C157.149 62.2932 162.466 57.633 168.807 56.178L164.381 74.9281Z" fill="#3E3F43"/>
<path d="M157.051 100.183C156.318 99.4493 155.3 99.0272 154.262 99.0272C153.225 99.0272 152.207 99.4493 151.473 100.183C150.739 100.917 150.317 101.935 150.317 102.972C150.317 104.01 150.739 105.028 151.473 105.762C152.207 106.496 153.225 106.918 154.262 106.918C155.3 106.918 156.318 106.496 157.051 105.762C157.785 105.028 158.207 104.01 158.207 102.972C158.207 101.935 157.785 100.917 157.051 100.183Z" fill="#3E3F43"/>
<path d="M115.693 23.0141C113.515 23.0141 111.748 24.7805 111.748 26.9595V42.6085C111.748 44.7875 113.515 46.5538 115.693 46.5538C117.872 46.5538 119.638 44.7875 119.638 42.6085V26.9595C119.638 24.7809 117.872 23.0141 115.693 23.0141Z" fill="#3E3F43"/>
<path d="M118.482 9.85537C117.748 9.12154 116.73 8.6994 115.693 8.6994C114.655 8.6994 113.637 9.12154 112.903 9.85537C112.17 10.5892 111.747 11.6071 111.747 12.6447C111.747 13.6863 112.169 14.7002 112.903 15.434C113.637 16.1679 114.655 16.59 115.693 16.59C116.73 16.59 117.748 16.1679 118.482 15.434C119.216 14.7002 119.638 13.6823 119.638 12.6447C119.638 11.6071 119.216 10.5931 118.482 9.85537Z" fill="#3E3F43"/>
<path d="M83.6406 0C81.462 0 79.6953 1.76631 79.6953 3.94531V10.6523C79.6953 12.8313 81.462 14.5976 83.6406 14.5976C85.8192 14.5976 87.5859 12.8313 87.5859 10.6523V3.94531C87.5859 1.76631 85.8196 0 83.6406 0Z" fill="#3E3F43"/>
<path d="M44.9521 123.476C44.9521 121.297 43.1854 119.531 41.0068 119.531C38.8282 119.531 37.0615 121.297 37.0615 123.476L37.0619 123.685C37.0753 125.856 38.8392 127.606 41.0068 127.606C41.0147 127.606 41.023 127.606 41.0316 127.606C43.2102 127.592 44.9659 125.815 44.9525 123.636L44.9521 123.476Z" fill="#3E3F43"/>
<path d="M62.416 154.518C55.5579 150.345 50.2045 143.932 47.3426 136.463C46.5626 134.427 44.281 133.41 42.2468 134.19C40.2122 134.97 39.1947 137.251 39.9743 139.286C43.458 148.379 49.9713 156.182 58.3145 161.259C58.9552 161.649 59.6626 161.834 60.3613 161.834C61.6928 161.834 62.9928 161.16 63.7357 159.94C64.8684 158.078 64.277 155.651 62.416 154.518Z" fill="#3E3F43"/>
<path d="M83.6406 18.958C74.5037 18.958 67.0703 26.3913 67.0703 35.5283C67.0703 44.6652 74.5037 52.0985 83.6406 52.0985C92.7776 52.0985 100.211 44.6652 100.211 35.5283C100.211 26.3913 92.7776 18.958 83.6406 18.958ZM83.6406 44.2079C78.8546 44.2079 74.9609 40.3143 74.9609 35.5283C74.9609 30.7422 78.8546 26.8486 83.6406 26.8486C88.4267 26.8486 92.3203 30.7422 92.3203 35.5283C92.3203 40.3143 88.4267 44.2079 83.6406 44.2079Z" fill="#3E3F43"/>
<path d="M133.352 83.6405H129.801C131.361 81.1143 132.263 78.1415 132.263 74.9608C132.263 65.8239 124.83 58.3905 115.693 58.3905C106.556 58.3905 99.1228 65.8239 99.1228 74.9608C99.1224 78.1415 100.025 81.1143 101.585 83.6405H82.0625C79.8839 83.6405 78.1172 85.4068 78.1172 87.5858C78.1172 89.7648 79.8839 91.5311 82.0625 91.5311H133.352C135.53 91.5311 137.297 89.7648 137.297 87.5858C137.297 85.4068 135.531 83.6405 133.352 83.6405ZM115.693 83.6405C110.907 83.6405 107.013 79.7468 107.013 74.9608C107.013 70.1747 110.907 66.2811 115.693 66.2811C120.479 66.2811 124.373 70.1747 124.373 74.9608C124.373 79.7468 120.479 83.6405 115.693 83.6405Z" fill="#3E3F43"/>
</g>
</svg>
