<svg width="131" height="140" viewBox="0 0 131 140" fill="none" xmlns="http://www.w3.org/2000/svg">
<g opacity="0.2">
<path d="M95.2107 106.536L95.3445 106.669C96.8436 108.176 96.8374 110.612 95.3311 112.11C93.8247 113.609 91.3884 113.603 89.8897 112.097L89.7962 112.004C89.0359 111.251 88.6558 110.261 88.6558 109.27C88.6558 108.291 89.0267 107.313 89.7693 106.563C91.2645 105.053 93.7004 105.041 95.2107 106.536Z" fill="#3E3F43"/>
<path d="M81.5703 136.59C81.5703 145.501 74.3209 152.75 65.4102 152.75C56.4994 152.75 49.25 145.501 49.25 136.59C49.25 127.679 56.4994 120.43 65.4102 120.43C74.3209 120.43 81.5703 127.679 81.5703 136.59ZM56.9453 136.59C56.9453 141.257 60.7426 145.055 65.4102 145.055C70.0777 145.055 73.875 141.257 73.875 136.59C73.875 131.922 70.0777 128.125 65.4102 128.125C60.7426 128.125 56.9453 131.922 56.9453 136.59Z" fill="#3E3F43"/>
<path d="M36.168 96.7793C36.168 103.144 30.9898 108.322 24.625 108.322C18.2602 108.322 13.082 103.144 13.082 96.7793C13.082 90.4145 18.2602 85.2363 24.625 85.2363C30.9898 85.2363 36.168 90.4145 36.168 96.7793ZM20.7773 96.7793C20.7773 98.9009 22.5034 100.627 24.625 100.627C26.7466 100.627 28.4727 98.9009 28.4727 96.7793C28.4727 94.6577 26.7466 92.9316 24.625 92.9316C22.5034 92.9316 20.7773 94.6577 20.7773 96.7793Z" fill="#3E3F43"/>
<path d="M38.4766 3.84766L38.4766 55.7891H53.0977C55.2223 55.7891 56.9453 57.5117 56.9453 59.6367V71.1797H65.4102C73.9466 71.1797 82.1048 72.8257 89.5881 75.813C89.6935 75.8042 89.7993 75.7969 89.907 75.7969L108.789 75.7969C115.382 75.7969 120.746 81.1605 120.746 87.7535V101.191C120.746 101.362 120.731 101.529 120.709 101.694C127.109 111.799 130.82 123.769 130.82 136.59C130.82 172.657 101.477 202 65.4102 202H62.1416C27.8766 202 0 174.123 0 139.858V128.51C0 126.385 1.72298 124.662 3.84766 124.662C5.97234 124.662 7.69531 126.385 7.69531 128.51V139.858C7.69531 169.687 31.8066 193.985 61.5625 194.297V178.74C51.7094 177.857 42.5624 173.597 35.4823 166.517C27.2314 158.266 23.1059 147.428 23.1059 136.59C23.1059 125.752 27.2314 114.913 35.4823 106.662C47.0426 95.1021 64.4506 91.226 79.8308 96.7882C81.8293 97.5111 82.8635 99.717 82.1405 101.715C81.4179 103.713 79.2121 104.747 77.2136 104.025C64.6275 99.4734 50.3827 102.644 40.9237 112.104C27.4219 125.606 27.4222 147.575 40.9237 161.076C47.4643 167.617 56.1604 171.219 65.4102 171.219C74.6599 171.219 83.356 167.617 89.8966 161.076C99.1953 151.777 102.416 138.235 98.3022 125.733C97.6385 123.714 98.7359 121.54 100.754 120.876C102.773 120.212 104.948 121.309 105.612 123.328C106.634 126.431 107.278 129.587 107.573 132.742H122.994C121.007 102.705 95.9413 78.875 65.4102 78.875H7.69531V98.1133C7.69531 100.238 5.97234 101.961 3.84766 101.961C1.72298 101.961 0 100.238 0 98.1133V75.0273C0 72.9023 1.72298 71.1797 3.84766 71.1797H15.3906L15.3906 7.69531L9.62376 7.69531C7.49908 7.69531 5.77611 5.97272 5.77611 3.84766C5.77611 1.7226 7.49908 -9.28725e-08 9.62376 0L34.6289 1.07288e-06C36.7536 1.16576e-06 38.4766 1.7226 38.4766 3.84766ZM107.589 140.438C106.717 150.113 102.508 159.348 95.338 166.517C88.2579 173.598 79.1105 177.857 69.2578 178.74L69.2578 194.173C98.0221 192.27 121.091 169.202 122.994 140.438H107.589ZM103.564 83.4922C106.988 85.9601 110.165 88.7508 113.051 91.8193V87.7535C113.051 85.4037 111.139 83.4922 108.789 83.4922H103.564ZM23.0859 63.4844V71.1797H49.25V63.4844H23.0859ZM23.0859 7.69531L23.0859 55.7891H30.7812L30.7813 7.69531L23.0859 7.69531Z" fill="#3E3F43"/>
<path d="M6.56796 111.426C7.284 112.142 7.69531 113.131 7.69531 114.146C7.69531 115.158 7.284 116.151 6.56796 116.867C5.85191 117.582 4.85959 117.994 3.84766 117.994C2.83572 117.994 1.84303 117.582 1.12775 116.867C0.412079 116.151 0 115.158 0 114.146C0 113.135 0.411697 112.142 1.12775 111.426C1.84303 110.707 2.83572 110.299 3.84766 110.299C4.85959 110.299 5.85229 110.707 6.56796 111.426Z" fill="#3E3F43"/>
</g>
</svg>
