<svg width="12" height="13" viewBox="0 0 12 13" fill="none" xmlns="http://www.w3.org/2000/svg">
<path fill-rule="evenodd" clip-rule="evenodd" d="M6.75451 0.170854C6.98232 -0.0569515 7.35167 -0.0569515 7.57947 0.170854L9.91281 2.50419C10.1406 2.73199 10.1406 3.10134 9.91281 3.32915L3.49614 9.74581C3.38674 9.85521 3.23837 9.91667 3.08366 9.91667H0.750326C0.428159 9.91667 0.166992 9.6555 0.166992 9.33333V7C0.166992 6.84529 0.22845 6.69692 0.337847 6.58752L6.75451 0.170854ZM1.33366 7.24162V8.75H2.84203L8.67537 2.91667L7.16699 1.40829L1.33366 7.24162Z" fill="#3E3F43"/>
<path fill-rule="evenodd" clip-rule="evenodd" d="M0.166992 12.25C0.166992 11.9278 0.428159 11.6667 0.750326 11.6667H11.2503C11.5725 11.6667 11.8337 11.9278 11.8337 12.25C11.8337 12.5722 11.5725 12.8333 11.2503 12.8333H0.750326C0.428159 12.8333 0.166992 12.5722 0.166992 12.25Z" fill="#3E3F43"/>
</svg>
