<svg width="12" height="14" viewBox="0 0 12 14" fill="none" xmlns="http://www.w3.org/2000/svg">
<path fill-rule="evenodd" clip-rule="evenodd" d="M0.976311 9.42513C1.60143 8.76875 2.44928 8.4 3.33333 8.4H8.66667C9.55072 8.4 10.3986 8.76875 11.0237 9.42513C11.6488 10.0815 12 10.9717 12 11.9V13.3C12 13.6866 11.7015 14 11.3333 14C10.9651 14 10.6667 13.6866 10.6667 13.3V11.9C10.6667 11.343 10.456 10.8089 10.0809 10.4151C9.70581 10.0212 9.1971 9.8 8.66667 9.8H3.33333C2.8029 9.8 2.29419 10.0212 1.91912 10.4151C1.54405 10.8089 1.33333 11.343 1.33333 11.9V13.3C1.33333 13.6866 1.03486 14 0.666667 14C0.298477 14 0 13.6866 0 13.3V11.9C0 10.9717 0.351189 10.0815 0.976311 9.42513Z" fill="#3E3F43"/>
<path fill-rule="evenodd" clip-rule="evenodd" d="M6 1.4C4.89543 1.4 4 2.3402 4 3.5C4 4.6598 4.89543 5.6 6 5.6C7.10457 5.6 8 4.6598 8 3.5C8 2.3402 7.10457 1.4 6 1.4ZM2.66667 3.5C2.66667 1.567 4.15905 0 6 0C7.84095 0 9.33333 1.567 9.33333 3.5C9.33333 5.433 7.84095 7 6 7C4.15905 7 2.66667 5.433 2.66667 3.5Z" fill="#3E3F43"/>
</svg>
