<svg width="151" height="151" viewBox="0 0 151 151" fill="none" xmlns="http://www.w3.org/2000/svg">
<path d="M108.217 90.6H42.7835C41.3944 90.6 40.2669 91.7248 40.2669 93.1166V148.483C40.2669 149.875 41.3944 151 42.7835 151H108.217C109.609 151 110.734 149.875 110.734 148.483V93.1166C110.734 91.7248 109.609 90.6 108.217 90.6ZM105.7 145.967H45.3001V95.6334H105.7V145.967Z" fill="#3E3F43"/>
<path d="M108.217 90.6H42.7835C41.3944 90.6 40.2669 91.7248 40.2669 93.1166V148.483C40.2669 149.875 41.3944 151 42.7835 151H108.217C109.609 151 110.734 149.875 110.734 148.483V93.1166C110.734 91.7248 109.609 90.6 108.217 90.6ZM105.7 145.967H45.3001V95.6334H105.7V145.967Z" fill="#3E3F43"/>
<path d="M42.7835 90.6H2.51657C1.12749 90.6 0 91.7248 0 93.1166V148.483C0 149.875 1.12749 151 2.51657 151H42.7832C44.1723 151 45.2998 149.875 45.2998 148.483V93.1166C45.3001 91.7248 44.1726 90.6 42.7835 90.6ZM40.2666 145.967H5.03344V95.6334H40.2669L40.2666 145.967Z" fill="#3E3F43"/>
<path d="M148.484 90.6H108.217C106.825 90.6 105.7 91.7248 105.7 93.1166V148.483C105.7 149.875 106.825 151 108.217 151H148.483C149.875 151 151 149.875 151 148.483V93.1166C151 91.7248 149.875 90.6 148.484 90.6ZM145.967 145.967H110.734V95.6334H145.967L145.967 145.967Z" fill="#3E3F43"/>
<path d="M98.1502 110.733H52.8501C51.461 110.733 50.3335 111.858 50.3335 113.25V138.417C50.3335 139.808 51.461 140.933 52.8501 140.933H98.1502C99.5419 140.933 100.667 139.808 100.667 138.417V113.25C100.667 111.858 99.5419 110.733 98.1502 110.733ZM95.6336 135.9H55.3667V115.767H95.6333V135.9H95.6336Z" fill="#3E3F43"/>
<path d="M83.0502 100.667H78.0167V105.7H83.0502V100.667Z" fill="#3E3F43"/>
<path d="M72.9836 100.667H67.9501V105.7H72.9836V100.667Z" fill="#3E3F43"/>
<path d="M62.917 100.667H57.8835V105.7H62.917V100.667Z" fill="#3E3F43"/>
<path d="M93.117 100.667H88.0836V105.7H93.117V100.667Z" fill="#3E3F43"/>
<path d="M42.7832 110.733H2.51657V115.767H42.7832V110.733Z" fill="#3E3F43"/>
<path d="M27.6832 100.667H17.6166V105.7H27.6832V100.667Z" fill="#3E3F43"/>
<path d="M27.6832 120.8H17.6166V125.833H27.6832V120.8Z" fill="#3E3F43"/>
<path d="M148.483 110.733H108.217V115.767H148.483V110.733Z" fill="#3E3F43"/>
<path d="M130.867 113.25H125.834V148.483H130.867V113.25Z" fill="#3E3F43"/>
<path d="M133.383 100.667H123.317V105.7H133.383V100.667Z" fill="#3E3F43"/>
<path d="M120.8 125.833H115.767V133.383H120.8V125.833Z" fill="#3E3F43"/>
<path d="M140.934 125.833H135.9V133.383H140.934V125.833Z" fill="#3E3F43"/>
<path d="M107.479 41.0042L98.1502 31.6749V2.51657C98.1502 1.12749 97.0254 0 95.6336 0H55.3667C53.9776 0 52.8501 1.12749 52.8501 2.51657V31.6746L43.5208 41.0039C42.8009 41.7235 42.5847 42.8058 42.9746 43.7469C43.3648 44.6857 44.2832 45.2997 45.3001 45.2997H105.7C106.717 45.2997 107.638 44.6857 108.026 43.7469C108.416 42.8058 108.199 41.7238 107.479 41.0042ZM51.3752 40.2666L57.1459 34.4958C57.619 34.0251 57.8832 33.3834 57.8832 32.7166V5.03343H93.1167V32.7169C93.1167 33.3837 93.381 34.0254 93.8541 34.4961L99.6248 40.2669L51.3752 40.2666Z" fill="#3E3F43"/>
<path d="M135.9 55.3666C130.348 55.3666 125.834 59.8815 125.834 65.4331V67.9497H130.867V65.4331C130.867 62.6573 133.124 60.3997 135.901 60.3997C138.676 60.3997 140.934 62.657 140.934 65.4331V93.1166H145.967V65.4331C145.967 59.8815 141.452 55.3666 135.9 55.3666Z" fill="#3E3F43"/>
<path d="M143.45 80.5334H135.9V85.5669H143.45V80.5334Z" fill="#3E3F43"/>
<path d="M72.9836 75.5H47.817C46.4279 75.5 45.3004 76.6248 45.3004 78.0166V93.1166C45.3004 94.5083 46.4279 95.6331 47.817 95.6331H72.9836C74.3727 95.6331 75.5001 94.5083 75.5001 93.1166V78.0166C75.5001 76.6248 74.3727 75.5 72.9836 75.5ZM70.4667 90.6H50.3332V80.5334H70.4667V90.6Z" fill="#3E3F43"/>
<path d="M47.8167 80.5334H40.2666V85.5669H47.8167V80.5334Z" fill="#3E3F43"/>
<path d="M80.5336 80.5334H72.9836V85.5669H80.5336V80.5334Z" fill="#3E3F43"/>
<path d="M42.7835 0H2.51657C1.12749 0 0 1.12749 0 2.51657V32.7166C0 34.1057 1.12749 35.2331 2.51657 35.2331H42.7832C44.1723 35.2331 45.2998 34.1057 45.2998 32.7166V2.51657C45.3001 1.12749 44.1726 0 42.7835 0ZM40.2666 30.2H5.03344V5.03343H40.2669L40.2666 30.2Z" fill="#3E3F43"/>
<path d="M35.2335 15.1H30.2001V25.1666H35.2335V15.1Z" fill="#3E3F43"/>
<path d="M148.484 0H108.217C106.825 0 105.7 1.12749 105.7 2.51657V32.7166C105.7 34.1057 106.825 35.2331 108.217 35.2331H148.483C149.875 35.2331 151 34.1057 151 32.7166V2.51657C151 1.12749 149.875 0 148.484 0ZM145.967 30.2H110.734V5.03343H145.967L145.967 30.2Z" fill="#3E3F43"/>
<path d="M120.8 15.1H115.767V25.1666H120.8V15.1Z" fill="#3E3F43"/>
<path d="M45.3001 50.3334H0V55.3669H45.3001V50.3334Z" fill="#3E3F43"/>
<path d="M10.0669 45.3H5.03344V67.95H10.0669V45.3Z" fill="#3E3F43"/>
<path d="M7.55001 65.4334C3.38748 65.4334 0 68.8209 0 72.9834C0 77.146 3.38748 80.5334 7.55001 80.5334C11.7126 80.5334 15.1 77.146 15.1 72.9834C15.1 68.8209 11.7126 65.4334 7.55001 65.4334ZM7.55001 75.5C6.16329 75.5 5.03344 74.3702 5.03344 72.9834C5.03344 71.5967 6.16329 70.4669 7.55001 70.4669C8.93674 70.4669 10.0666 71.5967 10.0666 72.9834C10.0666 74.3702 8.93674 75.5 7.55001 75.5Z" fill="#3E3F43"/>
<path d="M20.1335 45.3H15.1V67.95H20.1335V45.3Z" fill="#3E3F43"/>
<path d="M17.6166 65.4334C13.4541 65.4334 10.0666 68.8209 10.0666 72.9834C10.0666 77.146 13.4541 80.5334 17.6166 80.5334C21.7791 80.5334 25.1666 77.146 25.1666 72.9834C25.1666 68.8209 21.7791 65.4334 17.6166 65.4334ZM17.6166 75.5C16.2299 75.5 15.1 74.3702 15.1 72.9834C15.1 71.5967 16.2299 70.4669 17.6166 70.4669C19.0033 70.4669 20.1332 71.5967 20.1332 72.9834C20.1335 74.3702 19.0033 75.5 17.6166 75.5Z" fill="#3E3F43"/>
<path d="M30.2001 45.3H25.1666V67.95H30.2001V45.3Z" fill="#3E3F43"/>
<path d="M27.6835 65.4334C23.5209 65.4334 20.1332 68.8209 20.1332 72.9834C20.1332 77.146 23.5209 80.5334 27.6835 80.5334C31.846 80.5334 35.2335 77.146 35.2335 72.9834C35.2335 68.8209 31.846 65.4334 27.6835 65.4334ZM27.6835 75.5C26.2968 75.5 25.1666 74.3702 25.1666 72.9834C25.1666 71.5967 26.2968 70.4669 27.6835 70.4669C29.0702 70.4669 30.2001 71.5967 30.2001 72.9834C30.2001 74.3702 29.0702 75.5 27.6835 75.5Z" fill="#3E3F43"/>
</svg>
