<svg width="148" height="152" viewBox="0 0 148 152" fill="none" xmlns="http://www.w3.org/2000/svg">
<path d="M64.1494 119.512C65.845 119.512 67.2196 118.134 67.2196 116.434C67.2196 114.735 65.845 113.357 64.1494 113.357C62.4537 113.357 61.0791 114.735 61.0791 116.434C61.0791 118.134 62.4537 119.512 64.1494 119.512Z" fill="#3E3F43"/>
<path d="M86.1005 119.512C87.7962 119.512 89.1708 118.134 89.1708 116.434C89.1708 114.735 87.7962 113.357 86.1005 113.357C84.4049 113.357 83.0303 114.735 83.0303 116.434C83.0303 118.134 84.4049 119.512 86.1005 119.512Z" fill="#3E3F43"/>
<path d="M125.282 10.2734H24.9684C23.7414 10.2734 22.7472 11.2703 22.7472 12.4999V65.8053C22.7472 67.035 23.7414 68.0319 24.9684 68.0319H39.73C40.957 68.0319 41.9512 67.035 41.9512 65.8053C41.9512 64.5757 40.957 63.5788 39.73 63.5788H27.1896V14.7265H123.061V63.5788H48.6148C47.3881 63.5788 46.3936 64.5757 46.3936 65.8053C46.3936 67.035 47.3881 68.0319 48.6148 68.0319H125.282C126.509 68.0319 127.503 67.035 127.503 65.8053V12.4999C127.503 11.2703 126.509 10.2734 125.282 10.2734Z" fill="#3E3F43"/>
<path d="M138.932 90.2625H95.6569C94.6198 84.9974 89.9799 81.0139 84.4278 81.0139H81.8199V78.3052H128.989C133.821 78.3052 137.752 74.3648 137.752 69.5213V8.78394C137.752 3.94042 133.821 0 128.989 0H113.177C111.95 0 110.955 0.996906 110.955 2.22656C110.955 3.45622 111.95 4.45312 113.177 4.45312H128.989C131.371 4.45312 133.309 6.39587 133.309 8.78394V69.521C133.309 71.9091 131.371 73.8518 128.989 73.8518H21.2611C18.8788 73.8518 16.9408 71.9091 16.9408 69.521V8.78394C16.9408 6.39587 18.8788 4.45312 21.2611 4.45312H104.292C105.519 4.45312 106.513 3.45622 106.513 2.22656C106.513 0.996906 105.519 0 104.292 0H21.2611C16.4293 0 12.4984 3.94042 12.4984 8.78394V69.521C12.4984 74.3645 16.4293 78.3049 21.2611 78.3049H68.43V81.0136H65.8224C60.2703 81.0136 55.6304 84.9968 54.5933 90.2622H9.06714C4.06742 90.2622 0 94.3395 0 99.3513C0 99.3513 0 133.501 0 133.517C0 139.021 4.58688 142.595 9.77436 142.606C9.78118 143.856 9.77436 145.106 9.77436 146.355C9.77436 149.468 12.3003 152 15.4055 152H19.8866C22.9916 152 25.5178 149.468 25.5178 146.355V142.607H124.733V146.355C124.733 149.468 127.26 152 130.365 152H134.846C137.951 152 140.477 149.468 140.477 146.355V142.472C144.743 141.735 148 138.001 148 133.517V99.3513C147.999 94.3398 143.932 90.2625 138.932 90.2625ZM72.8724 78.3052H77.3778V81.0139H72.8724V78.3052ZM65.8224 85.467H84.4278C87.5141 85.467 90.1407 87.4787 91.0718 90.2625H59.1784C60.1092 87.4787 62.7358 85.467 65.8224 85.467ZM21.0748 146.355C21.0748 147.012 20.5414 147.547 19.8861 147.547H15.4052C14.7498 147.547 14.2164 147.012 14.2164 146.355V142.607H21.0748V146.355ZM134.845 147.547H130.364C129.708 147.547 129.175 147.012 129.175 146.355V142.607H136.033V146.355H136.034C136.034 147.012 135.5 147.547 134.845 147.547ZM138.932 138.153H9.06714C6.51723 138.153 4.44235 136.074 4.44235 133.517V99.3513C4.44235 96.7952 6.51723 94.7153 9.06714 94.7153H138.932C141.482 94.7153 143.557 96.7949 143.557 99.3513V133.517C143.557 136.074 141.482 138.153 138.932 138.153Z" fill="#3E3F43"/>
<path d="M135.531 100.536H12.4709C11.2442 100.536 10.2497 101.533 10.2497 102.763V130.105C10.2497 131.335 11.2442 132.332 12.4709 132.332H135.531C136.757 132.332 137.752 131.335 137.752 130.105V102.763C137.752 101.533 136.757 100.536 135.531 100.536ZM71.7796 127.879H14.6921V104.99H71.7796V127.879ZM133.309 127.879H76.2219V104.99H133.309V127.879Z" fill="#3E3F43"/>
</svg>
