<svg width="154" height="154" viewBox="0 0 154 154" fill="none" xmlns="http://www.w3.org/2000/svg">
<path d="M9.17344 6.01562V5.86562H9.02344H3.00781C1.42931 5.86562 0.15 4.58632 0.15 3.00781C0.15 1.42931 1.42931 0.15 3.00781 0.15H150.992C152.571 0.15 153.85 1.42931 153.85 3.00781C153.85 4.58632 152.571 5.86562 150.992 5.86562H144.977H144.827V6.01562V150.992C144.827 152.571 143.547 153.85 141.969 153.85H123.922C122.839 153.85 121.85 153.238 121.365 152.27L117.686 144.909L117.644 144.827H117.551H90.5352C88.9566 144.827 87.6773 143.547 87.6773 141.969C87.6773 140.39 88.9566 139.111 90.5352 139.111H119.41C120.493 139.111 121.482 139.723 121.967 140.691L125.646 148.051L125.688 148.134H125.781H138.961H139.111V147.984V125.125V124.975H138.961H15.0391H14.8891V125.125V147.984V148.134H15.0391H28.2194H28.3121L28.3536 148.051L32.0334 140.691C32.5179 139.723 33.507 139.111 34.5898 139.111H63.4648C65.0434 139.111 66.3227 140.39 66.3227 141.969C66.3227 143.547 65.0434 144.827 63.4648 144.827H36.4486H36.3559L36.3144 144.909L32.6346 152.27C32.1501 153.238 31.161 153.85 30.0781 153.85H12.0312C10.4527 153.85 9.17344 152.571 9.17344 150.992V6.01562ZM117.906 70.8344H117.756V70.9844V77C117.756 78.5785 116.477 79.8578 114.898 79.8578C113.32 79.8578 112.041 78.5785 112.041 77V70.9844V70.8344H111.891H90.8359H90.6859V70.9844V92.0391V92.1891H90.8359H138.961H139.111V92.0391V70.9844V70.8344H138.961H117.906ZM84.8203 119.259H84.9703V119.109V6.01562V5.86562H84.8203H52.9375H52.7875V6.01562V64.9688V65.1188H52.9375H58.9531C60.5316 65.1188 61.8109 66.3981 61.8109 67.9766C61.8109 69.5551 60.5316 70.8344 58.9531 70.8344H52.9375H52.7875V70.9844V119.109V119.259H52.9375H84.8203ZM15.0391 5.86562H14.8891V6.01562V119.109V119.259H15.0391H46.9219H47.0719V119.109V70.9844V70.8344H46.9219H40.9062C39.3277 70.8344 38.0484 69.5551 38.0484 67.9766C38.0484 66.3981 39.3277 65.1188 40.9062 65.1188H46.9219H47.0719V64.9688V6.01562V5.86562H46.9219H15.0391ZM90.6859 119.109V119.259H90.8359H138.961H139.111V119.109V98.0547V97.9047H138.961H117.906H117.756V98.0547V104.07C117.756 105.649 116.477 106.928 114.898 106.928C113.32 106.928 112.041 105.649 112.041 104.07V98.0547V97.9047H111.891H90.8359H90.6859V98.0547V119.109ZM138.961 65.1188H139.111V64.9688V6.01562V5.86562H138.961H90.8359H90.6859V6.01562V64.9688V65.1188H90.8359H138.961ZM79.8578 141.969C79.8578 143.547 78.5785 144.827 77 144.827C75.4215 144.827 74.1422 143.547 74.1422 141.969C74.1422 140.39 75.4215 139.111 77 139.111C78.5785 139.111 79.8578 140.39 79.8578 141.969Z" fill="#3E3F43" stroke="#F4F5F7" stroke-width="0.3"/>
</svg>
