<svg width="149" height="151" viewBox="0 0 149 151" fill="none" xmlns="http://www.w3.org/2000/svg">
<path d="M42.0665 7.63846C40.8511 7.63846 39.8657 8.62881 39.8657 9.85037V15.75C39.8657 16.9715 40.8511 17.9619 42.0665 17.9619C43.2819 17.9619 44.2673 16.9715 44.2673 15.75V9.85037C44.2673 8.62881 43.2822 7.63846 42.0665 7.63846Z" fill="#3E3F43"/>
<path d="M106.933 7.63846C105.718 7.63846 104.732 8.62881 104.732 9.85037V15.75C104.732 16.9715 105.718 17.9619 106.933 17.9619C108.149 17.9619 109.134 16.9715 109.134 15.75V9.85037C109.134 8.62881 108.149 7.63846 106.933 7.63846Z" fill="#3E3F43"/>
<path d="M128.982 36.1724H108.721C107.505 36.1724 106.52 37.1627 106.52 38.3843C106.52 39.6059 107.505 40.5962 108.721 40.5962H126.782V74.0783H22.2186V40.5962H99.9174C101.133 40.5962 102.118 39.6059 102.118 38.3843C102.118 37.1627 101.133 36.1724 99.9174 36.1724H20.0178C18.8024 36.1724 17.817 37.1627 17.817 38.3843V76.2902C17.817 77.5118 18.8024 78.5022 20.0178 78.5022H128.982C130.198 78.5022 131.183 77.5118 131.183 76.2902V38.3843C131.183 37.1627 130.198 36.1724 128.982 36.1724Z" fill="#3E3F43"/>
<path d="M128.982 84.8412H45.3378C44.1223 84.8412 43.137 85.8315 43.137 87.0531C43.137 88.2747 44.1223 89.265 45.3378 89.265H126.782V122.747H22.2186V89.265H36.5346C37.75 89.265 38.7354 88.2747 38.7354 87.0531C38.7354 85.8315 37.75 84.8412 36.5346 84.8412H20.0178C18.8024 84.8412 17.817 85.8315 17.817 87.0531V124.959C17.817 126.181 18.8024 127.171 20.0178 127.171H128.982C130.198 127.171 131.183 126.181 131.183 124.959V87.0531C131.183 85.8315 130.198 84.8412 128.982 84.8412Z" fill="#3E3F43"/>
<path d="M74.4997 49.5117C70.2064 49.5117 66.7136 53.0224 66.7136 57.3374C66.7136 61.6524 70.2064 65.1629 74.4997 65.1629C78.793 65.1629 82.2858 61.6524 82.2858 57.3374C82.2861 53.0224 78.7933 49.5117 74.4997 49.5117ZM74.4997 60.739C72.6334 60.739 71.1152 59.2128 71.1152 57.3374C71.1152 55.4617 72.6334 53.9358 74.4997 53.9358C76.366 53.9358 77.8842 55.4614 77.8842 57.3374C77.8845 59.2128 76.366 60.739 74.4997 60.739Z" fill="#3E3F43"/>
<path d="M74.4997 98.1808C70.2064 98.1808 66.7136 101.691 66.7136 106.006C66.7136 110.321 70.2064 113.832 74.4997 113.832C78.793 113.832 82.2858 110.321 82.2858 106.006C82.2861 101.691 78.793 98.1808 74.4997 98.1808ZM74.4997 109.408C72.6334 109.408 71.1152 107.882 71.1152 106.006C71.1152 104.131 72.6334 102.605 74.4997 102.605C76.366 102.605 77.8842 104.131 77.8842 106.006C77.8842 107.882 76.366 109.408 74.4997 109.408Z" fill="#3E3F43"/>
<path d="M141.432 0H7.56808C3.39509 0 0 3.41224 0 7.60632V21.1429C0 24.5678 2.26447 27.4704 5.36729 28.4201V126.875C5.36729 132.815 9.63418 137.769 15.2485 138.813V143.046C15.2485 147.432 18.7989 151 23.1626 151H37.7571C42.1208 151 45.6711 147.432 45.6711 143.046V139.018H103.329V143.046C103.329 147.432 106.879 151 111.243 151H125.837C130.201 151 133.751 147.432 133.751 143.046V138.813C139.366 137.769 143.633 132.815 143.633 126.875V28.4201C146.736 27.4701 149 24.5678 149 21.1429V7.60632C149 3.41224 145.605 0 141.432 0ZM37.7571 146.576H23.1626C21.2259 146.576 19.6501 144.992 19.6501 143.046V139.018H41.2692V143.046H41.2695C41.2695 144.992 39.6938 146.576 37.7571 146.576ZM125.837 146.576H111.243C109.306 146.576 107.73 144.992 107.73 143.046V139.018H129.349V143.046H129.35C129.35 144.992 127.774 146.576 125.837 146.576ZM139.231 126.875C139.231 131.131 135.786 134.594 131.551 134.594H17.4496C13.2144 134.594 9.76916 131.131 9.76916 126.875V28.7492H139.231V126.875ZM144.598 21.1429C144.598 22.8977 143.178 24.3254 141.432 24.3254H7.56808C5.82212 24.3254 4.40158 22.8977 4.40158 21.1429V7.60632C4.40158 5.85124 5.82212 4.42382 7.56808 4.42382H141.432C143.178 4.42382 144.598 5.85124 144.598 7.60632V21.1429Z" fill="#3E3F43"/>
</svg>
