<svg width="164" height="151" viewBox="0 0 164 151" fill="none" xmlns="http://www.w3.org/2000/svg">
<path d="M157.011 0H145.393C141.539 0 138.403 3.13711 138.403 6.99264V16.7863C126.823 11.0382 108.296 8.23403 82.0003 8.23403C67.796 8.23403 55.6353 9.08031 45.8564 10.7498C44.5486 10.9731 43.6693 12.2145 43.8926 13.5232C44.1159 14.8316 45.3564 15.7118 46.6649 15.4878C56.1776 13.8642 68.066 13.0406 82.0003 13.0406C108.978 13.0406 127.939 16.1335 138.403 22.2373V41.1849C138.377 41.1705 138.35 41.1583 138.324 41.1442C135.484 39.5868 132.088 39.0254 128.941 38.4281C117.428 36.2427 105.583 35.9329 93.9025 36.4215C90.8893 36.5475 88.0193 36.6708 85.3671 38.2836C84.0961 39.0549 82.9686 40.072 82.0644 41.2522C82.0436 41.2794 82.0211 41.305 82.0006 41.3326C81.9798 41.3047 81.9571 41.2788 81.9359 41.2509C80.8091 39.7769 79.3468 38.5781 77.6812 37.7626C75.2792 36.5866 72.7218 36.5318 70.1045 36.4215C58.611 35.9287 49.3427 36.4328 42.0822 37.3354C38.9249 37.728 35.7691 38.2458 32.6582 38.9139C30.2946 39.4215 27.8436 39.9557 25.6773 41.1439C25.6514 41.158 25.6241 41.1701 25.5982 41.1846V22.2369C28.7456 20.4002 32.6723 18.823 37.2935 17.5418C38.5722 17.1874 39.3214 15.8631 38.9668 14.5839C38.6122 13.3047 37.2884 12.5561 36.01 12.9099C32.0929 13.9962 28.6082 15.2946 25.5982 16.7859V6.99264C25.5982 3.13679 22.4623 0 18.6083 0H6.99053C3.13587 0 0 3.13711 0 6.99264V125.477C0 125.588 0.00768753 125.7 0.0233829 125.811L2.70889 144.922C3.19577 148.387 6.20063 151 9.69814 151H15.8991C19.3966 151 22.4015 148.387 22.8883 144.922L25.2833 127.88H138.717L141.112 144.922C141.599 148.387 144.603 151 148.101 151H154.302C157.8 151 160.805 148.387 161.291 144.922L163.977 125.811C163.992 125.7 164 125.588 164 125.476V6.99264C164.001 3.13711 160.865 0 157.011 0ZM143.207 6.99264C143.207 5.78715 144.188 4.8066 145.393 4.8066H157.01C158.215 4.8066 159.196 5.78747 159.196 6.99264V78.0284C156.233 75.8379 152.812 74.3056 149.368 73.0437C148.434 72.7014 147.464 72.3704 146.456 72.0503V54.8975C146.456 51.462 145.299 48.0564 143.207 45.3323V6.99264ZM84.4027 48.5306C84.4027 44.7273 87.3707 41.5809 91.16 41.3675C94.4067 41.1849 97.6649 41.0564 100.917 41.0564C100.942 41.0564 100.966 41.0561 100.991 41.0561C109.321 40.9958 119.676 41.4521 129.186 43.3738C132.795 44.1031 136.449 44.8302 138.99 47.7635C140.685 49.7198 141.652 52.3073 141.652 54.8978V70.6798C130.089 67.7179 114.625 65.9526 95.4368 65.406C91.7596 65.3009 88.0815 65.2432 84.4027 65.2259V48.5306ZM82.0006 70.0267C101.723 70.0267 122.263 70.4773 141.442 75.6027C146.747 77.02 152.207 78.7103 156.607 82.1211H7.37683C7.6177 81.934 7.87972 81.7407 8.16544 81.5421C13.3603 77.9304 19.6605 76.2128 25.7513 74.807C44.1418 70.5628 63.2024 70.0267 82.0006 70.0267ZM22.3489 54.8978C22.3489 47.4716 28.5505 44.6395 34.8165 43.3735C44.3141 41.4544 54.6542 40.9971 62.9782 41.0561C63.023 41.0564 63.0682 41.0567 63.113 41.057C66.3543 41.082 69.6055 41.157 72.8406 41.3678C76.6296 41.5809 79.598 44.7273 79.598 48.5306V65.2259C79.4977 65.2262 72.1401 65.3018 68.5619 65.406C49.3748 65.9526 33.9116 67.7183 22.3489 70.6798C22.3489 70.6798 22.3489 54.9029 22.3489 54.8978ZM6.98989 4.8066H18.6077C19.8127 4.8066 20.7928 5.78747 20.7928 6.99264V45.3323C18.992 47.677 17.8508 50.5318 17.598 53.5994C17.5625 54.0307 17.5442 54.4649 17.5442 54.8975V72.0503C13.0858 73.466 8.59178 75.2291 4.80503 78.0287V6.99264H4.80471C4.80471 5.78715 5.78519 4.8066 6.98989 4.8066ZM159.196 99.6726H134.667C133.341 99.6726 132.265 100.749 132.265 102.076C132.265 103.403 133.341 104.479 134.667 104.479H159.196V125.309L156.533 144.253C156.378 145.36 155.419 146.194 154.302 146.194H148.101C146.985 146.194 146.025 145.36 145.87 144.253L143.184 125.142C143.017 123.956 142.003 123.074 140.805 123.074H23.1952C21.9975 123.074 20.9828 123.956 20.8162 125.142L18.1307 144.253C17.975 145.36 17.016 146.194 15.8991 146.194H9.69814C8.58153 146.194 7.62219 145.359 7.46651 144.253L4.80471 125.309V104.479H125.058C126.385 104.479 127.46 103.403 127.46 102.076C127.46 100.749 126.385 99.6726 125.058 99.6726H4.80471V86.9283H159.196V99.6726Z" fill="#3E3F43"/>
</svg>
