<svg width="152" height="152" viewBox="0 0 152 152" fill="none" xmlns="http://www.w3.org/2000/svg">
<path d="M55.7333 38H66.2264C66.7794 40.1725 68.0404 42.0989 69.8103 43.4748C71.5803 44.8507 73.7582 45.5976 76 45.5976C78.2418 45.5976 80.4197 44.8507 82.1896 43.4748C83.9596 42.0989 85.2206 40.1725 85.7736 38H96.2667C96.9385 38 97.5829 37.7331 98.058 37.258C98.5331 36.7829 98.8 36.1385 98.8 35.4667V30.4C98.796 27.0418 97.4602 23.8223 95.0856 21.4478C92.711 19.0732 89.4915 17.7374 86.1333 17.7333H83.6V15.2C83.5935 13.6337 83.1033 12.1077 82.1963 10.8308C81.2894 9.55379 80.01 8.58821 78.5333 8.06613V0H73.4667V8.06613C71.99 8.58821 70.7106 9.55379 69.8037 10.8308C68.8967 12.1077 68.4065 13.6337 68.4 15.2V17.7333H65.8667C62.5085 17.7374 59.289 19.0732 56.9144 21.4478C54.5398 23.8223 53.204 27.0418 53.2 30.4V35.4667C53.2 36.1385 53.4669 36.7829 53.942 37.258C54.4171 37.7331 55.0615 38 55.7333 38ZM76 40.5333C75.1146 40.5307 74.2454 40.2952 73.4797 39.8505C72.714 39.4059 72.0788 38.7677 71.6376 38H80.3624C79.9212 38.7677 79.286 39.4059 78.5203 39.8505C77.7546 40.2952 76.8854 40.5307 76 40.5333ZM73.4667 15.2C73.4667 14.5281 73.7336 13.8838 74.2087 13.4087C74.6838 12.9336 75.3281 12.6667 76 12.6667C76.6719 12.6667 77.3162 12.9336 77.7913 13.4087C78.2664 13.8838 78.5333 14.5281 78.5333 15.2V17.7333H73.4667V15.2ZM58.2667 30.4C58.2667 28.3844 59.0674 26.4513 60.4927 25.026C61.9179 23.6007 63.851 22.8 65.8667 22.8H86.1333C88.149 22.8 90.0821 23.6007 91.5073 25.026C92.9326 26.4513 93.7333 28.3844 93.7333 30.4V32.9333H58.2667V30.4Z" fill="#3E3F43"/>
<path d="M91.2 136.8H83.6V101.333H108.933C110.949 101.333 112.882 100.533 114.307 99.1073C115.733 97.6821 116.533 95.749 116.533 93.7333C116.533 91.7177 115.733 89.7846 114.307 88.3593C112.882 86.934 110.949 86.1333 108.933 86.1333H84.056L86.0979 73.8847C86.1586 73.5217 86.1395 73.1499 86.042 72.7951C85.9444 72.4403 85.7707 72.1109 85.533 71.8301C85.2952 71.5492 84.9992 71.3234 84.6654 71.1686C84.3315 71.0137 83.968 70.9334 83.6 70.9333H83.4556C82.7893 65.0104 79.8 60.8 76 60.8C72.2 60.8 69.2107 65.0104 68.5444 70.9333H68.4C68.032 70.9334 67.6685 71.0137 67.3346 71.1686C67.0008 71.3234 66.7048 71.5492 66.467 71.8301C66.2293 72.1109 66.0556 72.4403 65.958 72.7951C65.8605 73.1499 65.8414 73.5217 65.9021 73.8847L67.944 86.1333H43.0667C41.051 86.1333 39.1179 86.934 37.6927 88.3593C36.2674 89.7846 35.4667 91.7177 35.4667 93.7333C35.4667 95.749 36.2674 97.6821 37.6927 99.1073C39.1179 100.533 41.051 101.333 43.0667 101.333H68.4V136.8H60.8C58.7844 136.8 56.8513 137.601 55.426 139.026C54.0007 140.451 53.2 142.384 53.2 144.4C53.2 146.416 54.0007 148.349 55.426 149.774C56.8513 151.199 58.7844 152 60.8 152H91.2C93.2156 152 95.1487 151.199 96.574 149.774C97.9993 148.349 98.8 146.416 98.8 144.4C98.8 142.384 97.9993 140.451 96.574 139.026C95.1487 137.601 93.2156 136.8 91.2 136.8ZM76 65.8667C76.5067 65.8667 77.8392 67.6603 78.3332 70.9333H73.6668C74.1608 67.6603 75.4933 65.8667 76 65.8667ZM71.3919 76H80.6081L78.9209 86.1333H73.0791L71.3919 76ZM40.5333 93.7333C40.5333 93.0615 40.8002 92.4171 41.2753 91.942C41.7504 91.4669 42.3948 91.2 43.0667 91.2H108.933C109.605 91.2 110.25 91.4669 110.725 91.942C111.2 92.4171 111.467 93.0615 111.467 93.7333C111.467 94.4052 111.2 95.0496 110.725 95.5247C110.25 95.9998 109.605 96.2667 108.933 96.2667H43.0667C42.3948 96.2667 41.7504 95.9998 41.2753 95.5247C40.8002 95.0496 40.5333 94.4052 40.5333 93.7333ZM73.4667 101.333H78.5333V136.8H73.4667V101.333ZM91.2 146.933H60.8C60.1281 146.933 59.4838 146.666 59.0087 146.191C58.5336 145.716 58.2667 145.072 58.2667 144.4C58.2667 143.728 58.5336 143.084 59.0087 142.609C59.4838 142.134 60.1281 141.867 60.8 141.867H91.2C91.8719 141.867 92.5162 142.134 92.9913 142.609C93.4664 143.084 93.7333 143.728 93.7333 144.4C93.7333 145.072 93.4664 145.716 92.9913 146.191C92.5162 146.666 91.8719 146.933 91.2 146.933Z" fill="#3E3F43"/>
<path d="M38 111.467H15.2V78.5333C15.2 76.5177 14.3993 74.5846 12.974 73.1593C11.5487 71.734 9.61565 70.9333 7.6 70.9333C5.58435 70.9333 3.65127 71.734 2.22599 73.1593C0.800712 74.5846 0 76.5177 0 78.5333V144.4C0 146.416 0.800712 148.349 2.22599 149.774C3.65127 151.199 5.58435 152 7.6 152C9.61565 152 11.5487 151.199 12.974 149.774C14.3993 148.349 15.2 146.416 15.2 144.4V126.667H30.4V144.4C30.4 146.416 31.2007 148.349 32.626 149.774C34.0513 151.199 35.9844 152 38 152C40.0156 152 41.9487 151.199 43.374 149.774C44.7993 148.349 45.6 146.416 45.6 144.4V119.067C45.6 117.051 44.7993 115.118 43.374 113.693C41.9487 112.267 40.0156 111.467 38 111.467ZM40.5333 144.4C40.5333 145.072 40.2664 145.716 39.7913 146.191C39.3162 146.666 38.6719 146.933 38 146.933C37.3281 146.933 36.6838 146.666 36.2087 146.191C35.7336 145.716 35.4667 145.072 35.4667 144.4V124.133C35.4667 123.461 35.1998 122.817 34.7247 122.342C34.2496 121.867 33.6052 121.6 32.9333 121.6H12.6667C11.9948 121.6 11.3504 121.867 10.8753 122.342C10.4002 122.817 10.1333 123.461 10.1333 124.133V144.4C10.1333 145.072 9.86643 145.716 9.39134 146.191C8.91624 146.666 8.27188 146.933 7.6 146.933C6.92812 146.933 6.28376 146.666 5.80866 146.191C5.33357 145.716 5.06667 145.072 5.06667 144.4V78.5333C5.06667 77.8615 5.33357 77.2171 5.80866 76.742C6.28376 76.2669 6.92812 76 7.6 76C8.27188 76 8.91624 76.2669 9.39134 76.742C9.86643 77.2171 10.1333 77.8615 10.1333 78.5333V114C10.1333 114.672 10.4002 115.316 10.8753 115.791C11.3504 116.266 11.9948 116.533 12.6667 116.533H38C38.6719 116.533 39.3162 116.8 39.7913 117.275C40.2664 117.75 40.5333 118.395 40.5333 119.067V144.4Z" fill="#3E3F43"/>
<path d="M144.4 70.9333C142.384 70.9333 140.451 71.734 139.026 73.1593C137.601 74.5846 136.8 76.5177 136.8 78.5333V111.467H114C111.984 111.467 110.051 112.267 108.626 113.693C107.201 115.118 106.4 117.051 106.4 119.067V144.4C106.4 146.416 107.201 148.349 108.626 149.774C110.051 151.199 111.984 152 114 152C116.016 152 117.949 151.199 119.374 149.774C120.799 148.349 121.6 146.416 121.6 144.4V126.667H136.8V144.4C136.8 146.416 137.601 148.349 139.026 149.774C140.451 151.199 142.384 152 144.4 152C146.416 152 148.349 151.199 149.774 149.774C151.199 148.349 152 146.416 152 144.4V78.5333C152 76.5177 151.199 74.5846 149.774 73.1593C148.349 71.734 146.416 70.9333 144.4 70.9333ZM146.933 144.4C146.933 145.072 146.666 145.716 146.191 146.191C145.716 146.666 145.072 146.933 144.4 146.933C143.728 146.933 143.084 146.666 142.609 146.191C142.134 145.716 141.867 145.072 141.867 144.4V124.133C141.867 123.461 141.6 122.817 141.125 122.342C140.65 121.867 140.005 121.6 139.333 121.6H119.067C118.395 121.6 117.75 121.867 117.275 122.342C116.8 122.817 116.533 123.461 116.533 124.133V144.4C116.533 145.072 116.266 145.716 115.791 146.191C115.316 146.666 114.672 146.933 114 146.933C113.328 146.933 112.684 146.666 112.209 146.191C111.734 145.716 111.467 145.072 111.467 144.4V119.067C111.467 118.395 111.734 117.75 112.209 117.275C112.684 116.8 113.328 116.533 114 116.533H139.333C140.005 116.533 140.65 116.266 141.125 115.791C141.6 115.316 141.867 114.672 141.867 114V78.5333C141.867 77.8615 142.134 77.2171 142.609 76.742C143.084 76.2669 143.728 76 144.4 76C145.072 76 145.716 76.2669 146.191 76.742C146.666 77.2171 146.933 77.8615 146.933 78.5333V144.4Z" fill="#3E3F43"/>
</svg>
