<svg width="12" height="10" viewBox="0 0 12 10" fill="none" xmlns="http://www.w3.org/2000/svg">
<path fill-rule="evenodd" clip-rule="evenodd" d="M1.6364 1.11111C1.33765 1.11111 1.09095 1.36238 1.09095 1.66667V8.33333C1.09095 8.63762 1.33765 8.88889 1.6364 8.88889H10.3636C10.6624 8.88889 10.9091 8.63762 10.9091 8.33333V1.66667C10.9091 1.36238 10.6624 1.11111 10.3636 1.11111H1.6364ZM4.68503e-05 1.66667C4.68503e-05 0.748731 0.735158 0 1.6364 0H10.3636C11.2648 0 12 0.748731 12 1.66667V8.33333C12 9.25127 11.2648 10 10.3636 10H1.6364C0.735158 10 4.68503e-05 9.25127 4.68503e-05 8.33333V1.66667Z" fill="#3E3F43"/>
<path fill-rule="evenodd" clip-rule="evenodd" d="M0.0986468 1.34808C0.271399 1.09672 0.611504 1.03559 0.858292 1.21154L6 4.87741L11.1417 1.21154C11.3885 1.03559 11.7286 1.09672 11.9014 1.34808C12.0741 1.59944 12.0141 1.94584 11.7673 2.1218L6.3128 6.01068C6.12499 6.14459 5.87501 6.14459 5.6872 6.01068L0.232702 2.1218C-0.0140867 1.94584 -0.0741052 1.59944 0.0986468 1.34808Z" fill="#3E3F43"/>
</svg>
