<svg width="21" height="17" viewBox="0 0 21 17" fill="none" xmlns="http://www.w3.org/2000/svg">
<path d="M6.5 17C14.4 17 18.7 10.5 18.7 4.79999C18.7 4.59999 18.7 4.4 18.7 4.2C19.5 3.6 20.3 2.8 20.8 2C20 2.3 19.2 2.6 18.3 2.7C19.2 2.2 19.9 1.29999 20.2 0.299988C19.4 0.799988 18.5 1.09999 17.5 1.29999C16.7 0.499988 15.6 0 14.4 0C12 0 10.1 1.89999 10.1 4.29999C10.1 4.59999 10.1 4.99999 10.2 5.29999C6.6 5.09999 3.5 3.39999 1.4 0.799988C1 1.39999 0.800003 2.19999 0.800003 2.89999C0.800003 4.39999 1.6 5.7 2.7 6.5C2 6.5 1.3 6.3 0.800003 6C0.800003 6 0.800003 5.99999 0.800003 6.09999C0.800003 8.19999 2.3 9.89999 4.2 10.3C3.8 10.4 3.5 10.5 3.1 10.5C2.8 10.5 2.6 10.5 2.3 10.4C2.8 12.1 4.4 13.3 6.3 13.4C4.8 14.5 3 15.2 1 15.2C0.7 15.2 0.3 15.2 0 15.1C1.8 16.3 4.1 17 6.5 17Z" fill="white"/>
</svg>
